<svg width="693" height="205" fill="none" xmlns="http://www.w3.org/2000/svg"><path d="M88.278 96.198a102.047 102.047 0 0113.068-44.772 101.96 101.96 0 0131.621-34.267 89.454 89.454 0 00-50.747-3.812 89.5 89.5 0 00-44.623 24.485 91.198 91.198 0 00-26.166 58.504l76.847-.138zm56.878-73.389a92.594 92.594 0 00-19.625 15.023 91.129 91.129 0 00-26.098 58.573h91.307a90.854 90.854 0 00-26.166-58.642 89.552 89.552 0 00-19.418-14.885v-.069zm-56.878 84.897H0v-5.72a102.23 102.23 0 0129.61-72.217A100.372 100.372 0 0184.245 1.4a100.333 100.333 0 0160.911 8.869 100.604 100.604 0 0169.392-6.925 100.674 100.674 0 0157.24 39.864l-9.159 6.89a90.637 90.637 0 00-32.157-28.253 89.466 89.466 0 00-73.06-4.685 102.637 102.637 0 0132.943 36.863 102.733 102.733 0 010 95.998 102.635 102.635 0 01-32.943 36.863 89.452 89.452 0 0057.848 1.963 89.515 89.515 0 0046.956-33.868l9.158 6.891a101.917 101.917 0 01-35.669 30.94 100.327 100.327 0 01-90.205 1.034 100.074 100.074 0 01-45.389 10.193 100.07 100.07 0 01-45.092-11.433 101.108 101.108 0 01-36.151-31.837l9.158-6.891a90.631 90.631 0 0032.157 28.253 89.469 89.469 0 0073.129 4.273 101.963 101.963 0 01-31.636-34.298 102.038 102.038 0 01-13.054-44.811l-.344.414zm102.807-.414H99.64a90.917 90.917 0 0025.891 58.711 92.917 92.917 0 0019.418 14.954 89.5 89.5 0 0019.418-14.954 90.641 90.641 0 0026.167-58.297m462.252 83.725a20.671 20.671 0 006.404 6.409 15.004 15.004 0 008.057 2.549 13.209 13.209 0 008.538-3.17 9.921 9.921 0 003.719-7.924 8.279 8.279 0 00-3.443-7.787 50.232 50.232 0 00-11.018-4.341 30.016 30.016 0 01-9.915-4.686 15.16 15.16 0 01-5.096-11.301 17.23 17.23 0 015.784-13.782 21.685 21.685 0 0114.529-4.893 31.322 31.322 0 0113.29 2.963h.827a77.804 77.804 0 00-2.961 8.821h-1.171a13.775 13.775 0 00-4.132-5.651 10.052 10.052 0 00-6.404-2.412 12.114 12.114 0 00-8.125 2.757 9.229 9.229 0 00-3.236 7.511 9.018 9.018 0 00.61 4.152 9.016 9.016 0 002.42 3.428 25.529 25.529 0 008.882 3.928 49.056 49.056 0 0111.362 4.134 15.377 15.377 0 016.266 12.266 19.788 19.788 0 01-2.825 9.843 19.76 19.76 0 01-7.366 7.109 22.636 22.636 0 01-12.876 2.963 30.278 30.278 0 01-15.632-3.928c1.584-5.237 2.411-8.338 2.548-9.302l.964.344zm-23.894-35.282h-.688a24.456 24.456 0 00-3.306-4.203 16.244 16.244 0 00-5.577-3.79 16.507 16.507 0 00-6.886-1.585 19.001 19.001 0 00-16.182 7.787 30.33 30.33 0 00-5.784 18.536 29.095 29.095 0 005.922 18.882 20.67 20.67 0 007.574 6.133 22.439 22.439 0 009.64 2.205 25.198 25.198 0 0017.146-7.856l.827.345-.62 5.926a31.59 31.59 0 01-19.143 6.339 29.104 29.104 0 01-16.986-3.579 29.14 29.14 0 01-11.935-12.614 34.47 34.47 0 01-3.167-15.16 31.72 31.72 0 014.131-16.539 27.902 27.902 0 0111.569-10.681 37.791 37.791 0 0116.732-3.652 36.548 36.548 0 0119.763 5.168l-3.03 8.338zm-77.811-28.184a6.131 6.131 0 01-4.544-1.791 5.918 5.918 0 01-1.928-4.479 6.402 6.402 0 011.859-4.549 6.193 6.193 0 014.613-1.998 5.983 5.983 0 014.407 1.998 6.417 6.417 0 011.859 4.549 5.782 5.782 0 01-1.928 4.41 5.921 5.921 0 01-4.338 1.86zm-6.059 15.505c2.017.148 4.042.148 6.059 0 1.604.149 3.217.149 4.82 0-.482 8.958-.757 18.881-.757 29.769 0 9.785 0 19.364.62 28.804v1.24a46.27 46.27 0 00-5.371 0 27.56 27.56 0 00-5.509 0c.482-8.958.757-19.019.757-30.044 0-12.886 0-22.533-.619-28.873v-.896zm-28.99 41.828l.413 12.266v5.651a32.294 32.294 0 00-5.44 0 24.238 24.238 0 00-5.095 0v-10.888l.619-13.782V170a29.363 29.363 0 00-1.79-12.61 13.781 13.781 0 00-5.085-6.171 13.761 13.761 0 00-7.654-2.305 14.452 14.452 0 00-13.772 7.649 40.825 40.825 0 00-2.754 17.641v20.672l.413 7.581v.758a39.75 39.75 0 00-5.096 0 23.456 23.456 0 00-5.095 0v-59.814c1.605.115 3.215.115 4.82 0 1.649.149 3.309.149 4.958 0v2.756l-.413 3.928v4.893a22.802 22.802 0 018.621-8.959 22.777 22.777 0 0112.036-3.1 19.481 19.481 0 0115.838 6.339 18.479 18.479 0 013.65 7.649c.498 3.423.728 6.879.688 10.337l.138 18.054zm-83.113-57.333a6.256 6.256 0 01-5.914-3.838 6.27 6.27 0 01-.49-2.432 6.422 6.422 0 011.859-4.549 6.07 6.07 0 014.545-1.998 5.781 5.781 0 014.407 1.998 6.414 6.414 0 011.859 4.549 6.333 6.333 0 01-6.266 6.27zm-5.991 15.505c1.994.149 3.997.149 5.991 0 1.626.151 3.263.151 4.889 0-.482 8.958-.758 18.881-.758 29.769 0 9.785 0 19.364.551 28.804v1.24a47.465 47.465 0 00-5.44 0 27.011 27.011 0 00-5.439 0c.482-8.958.757-19.019.757-30.044 0-12.886 0-22.533-.62-28.873l.069-.896zm-31.744 45.411v14.402h-10.742v-3.721l.964-29.286v-49.133l-.413-11.508v-.964l1.584.413h7.85a2.69 2.69 0 001.446-.413v3.583l-.896 27.564.207 49.063zM358 156.149h-.964a28.535 28.535 0 00-3.305-4.203 17.284 17.284 0 00-5.647-3.79 16.507 16.507 0 00-6.886-1.585 18.796 18.796 0 00-15.975 7.787 30.33 30.33 0 00-5.784 18.536 29.025 29.025 0 005.853 18.882 20.264 20.264 0 007.643 6.133 22.1 22.1 0 009.572 2.205 25.404 25.404 0 0017.215-7.856l.757.345-.551 5.926a31.934 31.934 0 01-19.212 6.339 29.104 29.104 0 01-16.986-3.579 29.132 29.132 0 01-11.934-12.614 34.47 34.47 0 01-3.168-15.16 31.72 31.72 0 014.2-16.539 27.562 27.562 0 0111.569-10.681 37.721 37.721 0 0116.664-3.652 36.277 36.277 0 0119.762 5.168L358 156.149zM678.677 18.744c.1 1.03.1 2.07 0 3.1l-.757 15.23h13.29v5.168l-13.29-.414a9.644 9.644 0 00-.344 2.757v32.663a26.88 26.88 0 001.928 11.163 7.643 7.643 0 007.781 4.273c.977-.02 1.948-.16 2.892-.414l2.823-.55v3.1a31.586 31.586 0 01-10.535 1.793h-3.512l-1.997-.345a9.638 9.638 0 01-5.096-3.032 14.543 14.543 0 01-3.305-5.513 55.133 55.133 0 01-.757-10.06l.757-22.12v-13.44l-8.194.413v-5.375l8.194.414V23.773l10.122-5.03zm-65.14 60.433l-.414-42.31v-.965l2.755.414a45.43 45.43 0 006.886-.414l-.551 8.683v3.79l.964-1.585a31.752 31.752 0 017.437-8.545 17.274 17.274 0 0110.742-3.1c.415.254.89.396 1.377.413l-.62 3.1v7.167l-.964.345-.551-.345a1.51 1.51 0 00-.826-.413 7.365 7.365 0 00-4.476-1.172 10.117 10.117 0 00-7.988 3.101 18.898 18.898 0 00-3.374 5.168 49.87 49.87 0 00-1.515 14.61v28.666a24.428 24.428 0 00-5.233-.414 41.28 41.28 0 00-4.751.414v-3.377l1.102-13.23zm-49.166-40.312a14.25 14.25 0 00-12.532 6.27 31.094 31.094 0 00-5.096 15.299h33.259c0-14.402-5.44-21.569-15.631-21.569zm25.409 26.462l-25.409-.345-17.834.345a30.675 30.675 0 005.715 19.501 19.554 19.554 0 0016.182 6.89 23.057 23.057 0 009.434-2.135 25 25 0 007.987-5.513 3.649 3.649 0 011.791-.827l-.827 6.34a36.203 36.203 0 01-21.484 7.51 74.259 74.259 0 01-8.745-1.377 24.161 24.161 0 01-9.227-4.342 25.833 25.833 0 01-6.886-7.718 32.483 32.483 0 01-4.545-17.778c.054-4.26.75-8.49 2.066-12.542a27.583 27.583 0 015.784-10.405 27.043 27.043 0 0120.658-8.476 24.426 24.426 0 0118.592 6.891 28.405 28.405 0 016.886 18.881l-.138 5.1zM500.952 46.79a16.668 16.668 0 00-5.784-5.582 15.488 15.488 0 00-7.713-2.136 14.734 14.734 0 00-13.771 8.614 43.988 43.988 0 00-4.27 19.639 44.8 44.8 0 001.722 11.852 16.808 16.808 0 006.886 9.717 16.103 16.103 0 009.984 2.756 13.767 13.767 0 008.47-2.894 18.193 18.193 0 005.784-7.58 30.398 30.398 0 002.066-7.994c.492-2.962.768-5.956.826-8.958a36.058 36.058 0 00-3.856-17.434h-.344zm-31.538 48.237v11.232l.413 15.642h-8.607a3.246 3.246 0 01-1.171 0h-.619c.03-1.524.168-3.043.413-4.548v-7.718l.413-10.818V36.798h3.443a26.565 26.565 0 005.509-.413v12.059s0-.414.551-.758l1.79-3.17a28.643 28.643 0 018.401-7.373 24.222 24.222 0 0110.742-2.137 23.328 23.328 0 0113.427 3.928 25.42 25.42 0 018.814 10.543 34.478 34.478 0 013.03 14.402 38.68 38.68 0 01-6.886 23.292 24.361 24.361 0 01-20.658 9.854 21.471 21.471 0 01-11.51-3.165 21.495 21.495 0 01-8.046-8.825v10.267l.551-.275zm-50.611-39.348l-6.06 7.511 23.481 32.043v.758a35.562 35.562 0 00-6.266-.413c-1.96-.048-3.92.09-5.853.413-.482-.827-1.24-1.998-2.204-3.445a341.619 341.619 0 01-4.2-6.478l-10.949-15.711c-1.17 1.654-2.41 3.239-3.58 4.961l-3.443 4.824-6.266 8.958-4.476 6.891a24.788 24.788 0 00-3.512-.413 14.799 14.799 0 00-4.132.413v-.758l1.722-2.412 7.23-8.682 13.772-17.572-22.448-30.458h.964a51.65 51.65 0 005.509 0 33.163 33.163 0 006.197-.414l6.266 9.923 5.302 7.443 4.269 5.926 6.886-9.027 10.123-14.265a21.05 21.05 0 004.338.414 19.209 19.209 0 004.545-.414l-2.617 2.963c-1.102 1.24-2.272 2.481-3.374 3.79-1.102 1.31-2.204 2.481-3.237 3.722l-7.987 9.51zM346.638 9.854c2.892 0 6.886 0 12.877-.413.049.596.049 1.195 0 1.791a11.496 11.496 0 000 1.999 13.803 13.803 0 00.344 3.79l-5.095-.414-6.06-.413-12.463-.413h-9.916l-.551 18.95v12.886h12.67l6.886-.414 5.646-.344h5.578c-.413 2.343-.62 3.652-.62 3.72 0 .07 0 1.379.62 3.79a100.64 100.64 0 00-11.224-.826h-19.556v36.935c7.506 0 15.011 0 22.448-.62 3.81-.02 7.611-.366 11.362-1.033v7.58h-8.676c-6.886 0-11.913-.414-15.356-.414h-20.658l.758-15.78v-54.37c0-1.447 0-6.89-.62-16.193l13.772.413 17.834-.207z" fill="#EE1C1F"/></svg>