<svg width="46" height="60" fill="none" xmlns="http://www.w3.org/2000/svg"><path fill-rule="evenodd" clip-rule="evenodd" d="M12.006 40.148h21.05V18.796h-21.05v21.352z" fill="#fff"/><path fill-rule="evenodd" clip-rule="evenodd" d="M7.445 50.322c0 .877-.354 1.582-1.053 2.112-.642.486-1.408.73-2.31.73-.383 0-.957-.105-1.714-.316-.334-.091-.53-.137-.582-.137a.391.391 0 00-.333.184h-.278l-.35-2.525h.316c.168.696.498 1.253.987 1.678a2.651 2.651 0 001.805.665c.62 0 1.147-.166 1.575-.497.467-.37.702-.853.702-1.462 0-.562-.315-1.117-.954-1.668-.23-.196-.78-.578-1.649-1.134-.856-.543-1.452-.98-1.788-1.318-.611-.6-.912-1.244-.912-1.926 0-.95.481-1.648 1.442-2.096a3.433 3.433 0 011.5-.317c.541 0 1.099.097 1.667.293.255.086.446.128.572.128.117 0 .22-.055.304-.17h.262l.283 2.116h-.283A3.096 3.096 0 005.62 43.26a2.604 2.604 0 00-1.627-.56c-.515 0-.94.126-1.28.382-.376.28-.562.673-.562 1.177 0 .552.309 1.091.936 1.617.192.161.735.527 1.631 1.09.857.54 1.464.992 1.824 1.355.603.618.902 1.285.902 2zm17.15-7.46c-.63 0-1.056.172-1.273.52-.138.208-.291.538-.462.994l-3.322 8.79h-.792l-2.17-5.145-2.078 5.145h-.81l-3.43-8.858c-.222-.569-.451-.945-.69-1.139-.264-.202-.683-.307-1.264-.307h-.095v-.315h4.276v.315h-.276c-.604 0-.902.194-.902.587 0 .129.034.281.105.463l3.007 7.619 1.783-4.442-1.341-3.275c-.162-.396-.38-.664-.659-.795-.22-.105-.568-.157-1.041-.157v-.315h6.772v.315c-.434 0-.76.052-.984.157-.29.13-.508.371-.652.73l-1.056 2.593 2.167 5.189 2.922-7.717c.09-.238.119-.424.085-.552-.064-.243-.483-.375-1.24-.4v-.315h3.42v.315zm-6.99.716a.981.981 0 00.084-.357c0-.239-.165-.36-.495-.36h-.695c-.351 0-.53.111-.53.326 0 .081.025.183.071.296l.823 1.925.741-1.83zm11.861 9.32H25.45v-.315c.513-.023.855-.136 1.016-.341.151-.189.226-.552.226-1.09v-7.084c0-.452-.098-.765-.29-.934-.173-.153-.49-.244-.952-.272v-.316h4.016v.316c-.693 0-1.117.17-1.265.508-.092.193-.139.476-.139.842v7.053c0 .656.177 1.056.54 1.196.206.08.493.122.864.122v.315zm8.083-2.576c0 .877-.351 1.582-1.056 2.112-.638.486-1.406.73-2.306.73-.385 0-.958-.105-1.713-.316-.337-.091-.528-.137-.581-.137a.39.39 0 00-.333.184h-.282l-.348-2.525h.318c.165.696.497 1.253.983 1.678a2.667 2.667 0 001.806.665c.62 0 1.147-.166 1.574-.497.471-.37.704-.853.704-1.462 0-.562-.317-1.117-.955-1.668-.23-.196-.776-.578-1.65-1.134-.848-.543-1.447-.98-1.788-1.318-.609-.6-.909-1.244-.909-1.926 0-.95.481-1.648 1.44-2.096a3.433 3.433 0 011.502-.317c.542 0 1.097.097 1.666.293.253.086.447.128.572.128a.35.35 0 00.3-.17h.265l.285 2.116h-.285a3.1 3.1 0 00-1.032-1.401 2.608 2.608 0 00-1.627-.56c-.514 0-.94.126-1.28.382-.377.28-.564.673-.564 1.177 0 .552.31 1.091.937 1.617.192.161.735.527 1.636 1.09.856.54 1.46.992 1.82 1.355.601.618.901 1.285.901 2zm8.095 0c0 .877-.35 1.582-1.057 2.112-.635.486-1.406.73-2.307.73-.383 0-.955-.105-1.714-.316-.334-.091-.525-.137-.58-.137a.378.378 0 00-.33.184h-.285l-.345-2.525h.317c.164.696.495 1.253.983 1.678a2.66 2.66 0 001.806.665c.62 0 1.146-.166 1.574-.497.47-.37.704-.853.704-1.462 0-.562-.318-1.117-.952-1.668-.233-.196-.781-.578-1.653-1.134-.85-.543-1.45-.98-1.788-1.318-.61-.6-.91-1.244-.91-1.926 0-.95.482-1.648 1.442-2.096a3.43 3.43 0 011.5-.317c.541 0 1.096.097 1.666.293.254.086.444.128.572.128a.354.354 0 00.3-.17h.265l.283 2.116h-.283a3.108 3.108 0 00-1.03-1.401 2.61 2.61 0 00-1.63-.56c-.513 0-.94.126-1.278.382-.377.28-.566.673-.566 1.177 0 .552.312 1.091.94 1.617.19.161.736.527 1.632 1.09.855.54 1.463.992 1.822 1.355.603.618.902 1.285.902 2z" fill="#474B56"/><path fill-rule="evenodd" clip-rule="evenodd" d="M22.621.22L0 40.315l19-.082v-7.522h-6.82v-6.876H19v-6.856h6.823v6.856h6.82v6.876h-6.82v7.477l19.72-.13L22.62.22z" fill="#D9222A"/><mask id="a" maskUnits="userSpaceOnUse" x="0" y="53" width="27" height="7"><path d="M.469 59.422h26.253v-5.564H.469v5.564z" fill="#fff"/></mask><g mask="url(#a)"><path fill-rule="evenodd" clip-rule="evenodd" d="M6.068 57.181c-.394.027-.591.208-.591.542v1.191a4.824 4.824 0 01-2.28.54 2.883 2.883 0 01-1.421-.35 2.425 2.425 0 01-1-1.067 2.843 2.843 0 01-.307-1.28 2.9 2.9 0 01.725-1.953c.531-.63 1.28-.946 2.24-.946.43 0 .918.077 1.462.233.135.039.212.059.23.059a.293.293 0 00.195-.06h.122v1.386h-.172c-.2-.936-.782-1.404-1.744-1.404-.709 0-1.27.264-1.685.788-.383.49-.573 1.105-.573 1.843 0 .807.237 1.442.72 1.906.435.423.93.632 1.482.632a2.87 2.87 0 001.299-.327v-1.08c0-.25-.051-.422-.153-.514-.1-.093-.277-.139-.527-.139h-.317v-.155h2.295v.155zm6.976 2.233a8.036 8.036 0 01-.358.007c-.506 0-.908-.069-1.212-.204-.287-.127-.635-.402-1.06-.825l-.559-.566c-.373-.372-.665-.627-.878-.766-.191.01-.382.017-.574.018-.112 0-.257-.004-.432-.018v1.45c0 .32.09.517.28.589.095.036.224.056.394.056h.194v.162H6.438v-.162h.147c.264 0 .443-.051.535-.153.097-.103.142-.288.142-.56v-3.608c0-.254-.042-.434-.131-.535-.086-.1-.257-.148-.507-.148h-.186v-.164c.11 0 .361-.013.744-.035.096-.003.205-.011.327-.017.357-.015.715-.022 1.073-.023.754 0 1.326.142 1.72.428.37.27.557.633.557 1.093 0 .341-.107.639-.325.889-.2.236-.47.402-.807.503.258.204.582.497.969.89l.676.676c.352.358.705.603 1.059.738.198.071.404.115.613.13v.155zm-2.986-3.925c0-.607-.22-1.017-.672-1.235-.241-.12-.573-.18-.995-.18-.18 0-.323.005-.42.017V56.9c.095.013.27.018.525.018 1.043 0 1.562-.477 1.562-1.43zm9.58 1.015c0 .851-.294 1.556-.88 2.113-.591.559-1.304.838-2.145.838a3.537 3.537 0 01-1.49-.315 2.787 2.787 0 01-1.161-.974 2.418 2.418 0 01-.417-1.393c0-.552.132-1.051.39-1.497.266-.45.655-.814 1.122-1.045a3.368 3.368 0 011.598-.373c.82 0 1.524.25 2.11.757.579.505.872 1.134.872 1.889zm-.799.284c0-.794-.226-1.444-.674-1.954-.448-.506-1.026-.76-1.731-.76-.678 0-1.206.269-1.59.808a2.744 2.744 0 00-.506 1.622c0 .495.103.948.303 1.36a2.4 2.4 0 00.913 1.026c.371.233.8.355 1.238.35.87 0 1.474-.42 1.817-1.26.153-.378.231-.783.23-1.192zm7.883-2.638c-.28.007-.476.069-.595.19-.118.118-.178.317-.178.596v2.313c0 .476-.121.892-.356 1.243a2.06 2.06 0 01-1.003.773c-.326.126-.711.189-1.156.189-.785 0-1.394-.207-1.831-.623-.419-.39-.628-.902-.628-1.534v-2.503c0-.334-.086-.533-.265-.588a1.782 1.782 0 00-.466-.056v-.163h2.186v.163h-.077c-.243 0-.415.044-.516.133-.104.088-.156.253-.156.494v2.381c0 .6.175 1.06.526 1.385.338.31.813.464 1.415.464 1.291 0 1.938-.62 1.938-1.857v-1.995c0-.514-.096-.816-.286-.908-.11-.052-.294-.084-.548-.097v-.163h1.996v.163z" fill="#1B1A19"/></g><path fill-rule="evenodd" clip-rule="evenodd" d="M31.305 55.428c0 .55-.218.973-.647 1.26-.372.25-.844.373-1.409.373-.255 0-.498-.022-.724-.066v1.498c0 .25.053.424.154.519.098.095.275.143.523.143h.284v.163h-2.353v-.163h.114c.214 0 .362-.03.437-.088.092-.068.135-.206.135-.411v-4.05c0-.305-.132-.455-.399-.455h-.425v-.164c.466-.024.82-.039 1.073-.052.35-.013.7-.021 1.051-.023.814 0 1.395.163 1.75.494.29.27.436.61.436 1.022zm-.796-.027c0-.884-.465-1.328-1.397-1.328-.254 0-.45.012-.587.035v2.725c.194.044.345.067.458.067.628 0 1.075-.242 1.34-.728.125-.228.186-.485.186-.771z" fill="#1B1A19"/><mask id="b" maskUnits="userSpaceOnUse" x="33" y="53" width="13" height="7"><path d="M33.72 59.422h11.806v-5.564H33.72v5.564z" fill="#fff"/></mask><g mask="url(#b)"><path fill-rule="evenodd" clip-rule="evenodd" d="M39.4 59.318h-2.336v-.162h.218c.203 0 .343-.012.418-.027.163-.039.248-.127.248-.265 0-.072-.034-.19-.093-.354l-.573-1.556h-1.758l-.492 1.343c-.112.313-.17.491-.17.538 0 .214.23.32.688.32h.134v.163H33.72v-.162c.346-.014.569-.105.674-.282.067-.114.147-.305.242-.57l1.552-4.259-.076-.187h.736l1.78 4.757c.102.279.244.445.416.498.088.027.206.043.355.043v.162zm-2.265-2.741l-.747-2.002-.721 2.002h1.468zm8.391.604c-.392.027-.59.208-.59.542v1.191c-.687.361-1.447.54-2.28.54-.53 0-1-.118-1.42-.35a2.412 2.412 0 01-1-1.067 2.817 2.817 0 01-.304-1.28c0-.737.238-1.39.72-1.953.53-.63 1.281-.946 2.24-.946.432 0 .922.077 1.463.233.135.039.213.059.232.059a.288.288 0 00.194-.06h.12v1.386h-.169c-.2-.936-.78-1.404-1.744-1.404-.711 0-1.271.264-1.687.788-.382.49-.577 1.105-.577 1.843 0 .807.242 1.442.724 1.906.435.423.928.632 1.482.632a2.87 2.87 0 001.3-.327v-1.08c0-.25-.05-.422-.154-.514-.102-.093-.277-.139-.53-.139h-.315v-.155h2.295v.155z" fill="#1B1A19"/></g></svg>