<svg width="307" height="92" fill="none" xmlns="http://www.w3.org/2000/svg"><path d="M39.107 43.153a45.206 45.206 0 015.79-19.835 45.168 45.168 0 0114.008-15.18 39.629 39.629 0 00-42.25 9.158 40.4 40.4 0 00-11.59 25.918l34.043-.061zM64.304 10.64a41.034 41.034 0 00-8.694 6.655 40.37 40.37 0 00-11.56 25.949H84.5a40.248 40.248 0 00-11.593-25.978 39.661 39.661 0 00-8.602-6.594v-.03zM39.107 48.25H0v-2.534a45.289 45.289 0 0113.117-31.993 44.447 44.447 0 0151.187-8.64A44.568 44.568 0 0195.045 2.02a44.596 44.596 0 0125.357 17.66l-4.057 3.052a40.153 40.153 0 00-14.246-12.516A39.63 39.63 0 0069.734 8.14a45.475 45.475 0 0114.594 16.33 45.512 45.512 0 010 42.528 45.474 45.474 0 01-14.594 16.33 39.629 39.629 0 0025.627.87 39.655 39.655 0 0020.801-15.004l4.057 3.053a45.154 45.154 0 01-15.801 13.706 44.452 44.452 0 01-39.961.458 44.326 44.326 0 01-40.084-.55A44.791 44.791 0 018.358 71.757l4.058-3.052A40.154 40.154 0 0026.66 81.22a39.635 39.635 0 0032.396 1.892 45.166 45.166 0 01-14.015-15.194 45.206 45.206 0 01-5.782-19.85l-.153.183zm45.544-.184H44.14a40.279 40.279 0 0011.47 26.01 41.184 41.184 0 008.602 6.624 39.658 39.658 0 008.602-6.625A40.157 40.157 0 0084.406 48.25m204.779 37.091a9.162 9.162 0 002.837 2.84 6.647 6.647 0 003.569 1.129 5.854 5.854 0 003.783-1.404 4.393 4.393 0 001.647-3.51 3.656 3.656 0 00-.285-1.938 3.657 3.657 0 00-1.24-1.513 22.272 22.272 0 00-4.881-1.923 13.288 13.288 0 01-4.392-2.076 6.71 6.71 0 01-2.258-5.006 7.637 7.637 0 012.563-6.105 9.602 9.602 0 016.436-2.168c2.035 0 4.045.448 5.888 1.313h.366a34.451 34.451 0 00-1.312 3.907h-.519a6.101 6.101 0 00-1.83-2.503 4.454 4.454 0 00-2.837-1.069 5.369 5.369 0 00-3.6 1.222 4.099 4.099 0 00-1.433 3.327 4 4 0 001.342 3.358 11.309 11.309 0 003.935 1.74 21.69 21.69 0 015.033 1.832 6.801 6.801 0 012.776 5.433 8.766 8.766 0 01-4.514 7.51 10.032 10.032 0 01-5.705 1.313 13.412 13.412 0 01-6.924-1.74c.701-2.32 1.067-3.694 1.128-4.121l.427.152zM278.6 69.711h-.305a10.788 10.788 0 00-1.464-1.862 7.194 7.194 0 00-2.471-1.679 7.314 7.314 0 00-3.05-.702 8.411 8.411 0 00-7.169 3.45 13.434 13.434 0 00-2.562 8.211c-.13 3.01.798 5.97 2.623 8.365a9.158 9.158 0 003.355 2.717 9.943 9.943 0 004.271.977 11.162 11.162 0 007.596-3.48l.366.152-.275 2.626a13.994 13.994 0 01-8.48 2.808 12.896 12.896 0 01-12.812-7.174 15.267 15.267 0 01-1.403-6.716 14.051 14.051 0 011.83-7.326 12.358 12.358 0 015.125-4.732 16.739 16.739 0 017.413-1.618c3.076-.085 6.113.71 8.754 2.29L278.6 69.71zm-34.47-12.485a2.71 2.71 0 01-2.013-.794 2.622 2.622 0 01-.855-1.984 2.846 2.846 0 01.824-2.015 2.743 2.743 0 012.044-.885 2.649 2.649 0 011.952.885 2.85 2.85 0 01.824 2.015 2.558 2.558 0 01-.854 1.953 2.625 2.625 0 01-1.922.825zm-2.685 6.868a18.23 18.23 0 002.685 0c.71.066 1.425.066 2.135 0a246.695 246.695 0 00-.335 13.188c0 4.335 0 8.578.274 12.76v.55a20.435 20.435 0 00-2.379 0 12.2 12.2 0 00-2.441 0c.214-3.969.336-8.426.336-13.31 0-5.709 0-9.982-.275-12.79v-.398zm-12.842 18.53l.183 5.434v2.503a14.324 14.324 0 00-2.41 0 10.79 10.79 0 00-2.257 0v-4.823l.274-6.105v-3.786a13 13 0 00-.793-5.586 6.099 6.099 0 00-5.643-3.755 6.402 6.402 0 00-6.101 3.388 18.073 18.073 0 00-1.22 7.815v9.159l.183 3.358v.335a17.685 17.685 0 00-2.258 0 10.422 10.422 0 00-2.257 0V64.065c.711.05 1.424.05 2.135 0 .731.066 1.466.066 2.197 0v1.22l-.183 1.74v2.168a10.099 10.099 0 019.151-5.342 8.624 8.624 0 017.016 2.809 8.185 8.185 0 011.617 3.388c.221 1.516.323 3.047.305 4.58l.061 7.997zm-36.819-25.398a2.773 2.773 0 01-2.62-1.7 2.845 2.845 0 01.606-3.092 2.694 2.694 0 013.087-.658c.337.153.637.377.879.657a2.832 2.832 0 01.824 2.015 2.81 2.81 0 01-2.776 2.778zm-2.654 6.868c.883.066 1.77.066 2.654 0 .72.067 1.445.067 2.166 0a245.583 245.583 0 00-.336 13.188c0 4.335 0 8.578.244 12.76v.55a20.88 20.88 0 00-2.41 0 11.923 11.923 0 00-2.41 0c.214-3.969.336-8.426.336-13.31 0-5.709 0-9.982-.275-12.79l.031-.398zm-14.063 20.118v6.38h-4.759v-1.649l.427-12.974V54.204l-.183-5.098v-.428l.702.183h3.478c.226.002.448-.062.64-.183v1.588l-.396 12.21.091 21.736zm-16.472-14.5h-.427a12.61 12.61 0 00-1.465-1.863 7.646 7.646 0 00-2.501-1.679 7.315 7.315 0 00-3.051-.702 8.323 8.323 0 00-7.077 3.45 13.44 13.44 0 00-2.562 8.211 12.859 12.859 0 002.593 8.365 8.965 8.965 0 003.386 2.717 9.784 9.784 0 004.24.977 11.25 11.25 0 007.626-3.48l.336.152-.244 2.626a14.148 14.148 0 01-8.511 2.808 12.896 12.896 0 01-12.812-7.174 15.267 15.267 0 01-1.403-6.716c-.061-2.566.583-5.1 1.86-7.326a12.205 12.205 0 015.125-4.732 16.707 16.707 0 017.382-1.618 16.065 16.065 0 018.755 2.29l-1.25 3.693zM300.655 8.84c.044.457.044.917 0 1.374l-.335 6.747h5.887v2.29l-5.887-.184a4.27 4.27 0 00-.153 1.221v14.47c-.07 1.69.222 3.376.854 4.945a3.385 3.385 0 003.447 1.893c.433-.01.863-.07 1.281-.183l1.251-.244v1.373a13.994 13.994 0 01-4.667.794h-1.556l-.884-.153a4.271 4.271 0 01-2.258-1.343 6.443 6.443 0 01-1.464-2.442 24.464 24.464 0 01-.336-4.457l.336-9.8V19.19l-3.63.183v-2.38l3.63.182V11.07l4.484-2.229zm-28.857 26.773l-.183-18.744v-.427l1.22.183c1.02.016 2.04-.045 3.05-.183l-.244 3.846v1.679l.427-.702a14.078 14.078 0 013.295-3.785 7.652 7.652 0 014.759-1.374c.184.112.394.176.61.183l-.275 1.374v3.174l-.427.153-.244-.152a.67.67 0 00-.366-.184 3.26 3.26 0 00-1.983-.519 4.485 4.485 0 00-3.538 1.374 8.345 8.345 0 00-1.495 2.29 22.085 22.085 0 00-.671 6.471v12.7a10.827 10.827 0 00-2.319-.184 18.28 18.28 0 00-2.104.184v-1.496l.488-5.861zm-21.781-17.859a6.307 6.307 0 00-5.552 2.778 13.78 13.78 0 00-2.257 6.777h14.734c0-6.38-2.41-9.555-6.925-9.555zm11.257 11.723l-11.257-.153-7.9.153a13.594 13.594 0 002.531 8.639 8.668 8.668 0 007.169 3.053 10.212 10.212 0 004.179-.947 11.074 11.074 0 003.539-2.442c.226-.193.5-.32.793-.366l-.366 2.808a16.039 16.039 0 01-9.518 3.328 32.903 32.903 0 01-3.874-.61 10.703 10.703 0 01-4.087-1.924 11.442 11.442 0 01-3.051-3.42 14.388 14.388 0 01-2.013-7.875 18.76 18.76 0 01.915-5.556 12.215 12.215 0 012.562-4.61 11.994 11.994 0 019.152-3.755 10.818 10.818 0 018.236 3.053 12.586 12.586 0 013.051 8.365l-.061 2.259zm-39.352-8.212a7.375 7.375 0 00-2.562-2.473 6.86 6.86 0 00-3.417-.946 6.526 6.526 0 00-6.1 3.816 19.483 19.483 0 00-1.892 8.7c.018 1.776.275 3.542.763 5.25a7.45 7.45 0 003.05 4.305 7.136 7.136 0 004.424 1.221 6.1 6.1 0 003.752-1.282 8.065 8.065 0 002.562-3.358 13.43 13.43 0 00.915-3.541 27.51 27.51 0 00.366-3.969 15.97 15.97 0 00-1.708-7.723h-.153zm-13.971 21.369v4.976l.183 6.93h-3.813a1.432 1.432 0 01-.518 0h-.275a14.47 14.47 0 01.183-2.015v-3.42l.183-4.792V16.838h1.525c.818.024 1.636-.037 2.441-.183v5.342s0-.183.244-.335l.793-1.404a12.697 12.697 0 013.721-3.267 10.734 10.734 0 014.759-.946 10.34 10.34 0 015.949 1.74 11.261 11.261 0 013.904 4.67 15.263 15.263 0 011.342 6.38 17.131 17.131 0 01-3.05 10.319 10.798 10.798 0 01-9.151 4.365 9.517 9.517 0 01-8.664-5.312v4.549l.244-.122zM185.53 25.203l-2.684 3.327 10.402 14.195v.336a15.765 15.765 0 00-2.776-.183c-.868-.021-1.736.04-2.593.183a33.178 33.178 0 00-.976-1.526 151.542 151.542 0 01-1.861-2.87l-4.85-6.96c-.519.733-1.068 1.435-1.586 2.198l-1.526 2.137-2.775 3.968-1.983 3.053a10.993 10.993 0 00-1.556-.183 6.548 6.548 0 00-1.83.183v-.336l.762-1.068 3.203-3.846 6.101-7.785-9.944-13.493h.427a22.88 22.88 0 002.44 0 14.68 14.68 0 002.746-.183l2.776 4.396 2.348 3.297 1.892 2.625 3.05-3.999 4.484-6.319a9.33 9.33 0 001.922.183 8.5 8.5 0 002.013-.183l-1.159 1.313c-.488.55-1.006 1.099-1.494 1.679-.489.58-.977 1.099-1.434 1.648l-3.539 4.213zm-31.969-20.3c1.281 0 3.051 0 5.705-.184.021.264.021.53 0 .794a5.03 5.03 0 000 .885c-.027.564.024 1.13.152 1.68l-2.257-.184-2.685-.183-5.521-.183h-4.393l-.244 8.395v5.708h5.613l3.051-.183 2.501-.153h2.471a49.825 49.825 0 00-.275 1.649c0 .03 0 .61.275 1.679a44.595 44.595 0 00-4.972-.367h-8.664V40.62c3.325 0 6.65 0 9.945-.275a29.658 29.658 0 005.033-.458v3.358h-3.843c-3.051 0-5.278-.183-6.803-.183h-9.151l.335-6.99V11.985c0-.641 0-3.053-.274-7.174l6.101.183 7.9-.092z" fill="#C9CFD6"/></svg>