<svg width="15" height="15" fill="none" xmlns="http://www.w3.org/2000/svg"><circle cx="10.5" cy="10.5" r="4.5" fill="url(#paint0_linear)"/><path d="M2.006 12.475a.776.776 0 00.57-.25c.217.058.441.086.666.083.601 0 1.344-.162 2.16-.463.071.263.15.514.234.752.48 1.341 1.142 2.08 1.864 2.08.72 0 1.383-.739 1.863-2.08a9.57 9.57 0 00.233-.75c.048.017.097.036.145.052.774.274 1.453.412 2.007.412.22.002.44-.025.652-.08A.78.78 0 1013.316 11c-.032-.855-.726-2.017-1.859-3.205.375-.388.72-.804 1.032-1.244.817-1.167 1.038-2.135.622-2.725-.188-.268-.492-.44-.902-.51-.652-.113-1.554.035-2.614.427l-.045-.164c-.326-1.147-.767-1.962-1.28-2.371a.778.778 0 10-1.541 0c-.292.234-.56.603-.793 1.078a.174.174 0 10.312.153c.187-.38.395-.682.618-.886a.777.777 0 001.267 0c.458.419.85 1.247 1.13 2.318a14.46 14.46 0 00-1.763.865 14.68 14.68 0 00-1.764-.865c.034-.129.069-.254.106-.375a.174.174 0 00-.128-.22l-.002-.001a.174.174 0 00-.206.118c-.035.114-.068.23-.1.35-1.06-.391-1.964-.54-2.617-.427-.41.07-.713.242-.902.51-.415.59-.194 1.558.622 2.725.313.44.658.856 1.033 1.245-1.126 1.181-1.82 2.338-1.858 3.19a.78.78 0 00.322 1.489zM7.5 1.529a.428.428 0 11-.002-.856.428.428 0 01.002.856zm-2.156 7.88a18.916 18.916 0 001.803 1.238c-.486.27-.986.512-1.5.725a14.547 14.547 0 01-.303-1.963zm3.688 3.07c-.42 1.174-.979 1.847-1.532 1.847-.554 0-1.113-.673-1.533-1.848a9.333 9.333 0 01-.234-.76 14.716 14.716 0 001.765-.865c.57.328 1.16.618 1.768.866a9.46 9.46 0 01-.234.76zm.319-1.105a14.016 14.016 0 01-1.502-.726 18.478 18.478 0 001.806-1.24 14.547 14.547 0 01-.304 1.966zm4.041.321a.427.427 0 11-.854-.001.427.427 0 01.854.001zm-1.519-2.893c.65.816 1.029 1.556 1.085 2.115a.779.779 0 00-.74.997c-.555.12-1.382 0-2.36-.346a9.604 9.604 0 01-.176-.064c.18-.788.297-1.589.35-2.395a16.3 16.3 0 001.18-1.062c.24.253.462.506.661.755zm-1.814-1.84c.321.274.625.554.906.834-.28.28-.584.559-.906.833a19.103 19.103 0 000-1.666zm2.09-3.3c.315.054.542.177.675.366.32.453.092 1.3-.623 2.321-.3.422-.63.822-.99 1.195a16.315 16.315 0 00-1.18-1.063 15.143 15.143 0 00-.35-2.397c.986-.37 1.854-.528 2.469-.422zm-2.801.553c.145.647.247 1.303.305 1.964A19.175 19.175 0 007.85 4.942c.485-.271.985-.514 1.498-.727zM7.5 5.142a18.132 18.132 0 012.19 1.515 18.104 18.104 0 010 2.276 18.622 18.622 0 01-2.192 1.514 18.238 18.238 0 01-2.19-1.514 18.583 18.583 0 01.002-2.276A18.13 18.13 0 017.5 5.142zm-1.848-.927a14.34 14.34 0 011.497.727 18.673 18.673 0 00-1.803 1.237c.058-.66.16-1.317.306-1.964zM2.798 6.349c-.716-1.022-.942-1.868-.623-2.321.133-.189.36-.312.674-.366.615-.106 1.484.052 2.471.423a15.25 15.25 0 00-.351 2.395c-.428.35-.823.708-1.18 1.064a10.43 10.43 0 01-.991-1.195zm2.142 2.28a15.578 15.578 0 01-.906-.832c.28-.28.583-.559.907-.834a19.112 19.112 0 000 1.666zm-1.15-.581c.36.358.755.714 1.179 1.06.053.807.17 1.607.35 2.394-1.048.393-1.958.548-2.564.406a.778.778 0 00-.713-.99c.074-.757.726-1.798 1.748-2.87zm-1.783 3.22a.428.428 0 110 .857.428.428 0 010-.857z" fill="#EE1C1F"/><path d="M7.5 8.777a.983.983 0 10.003-1.965.983.983 0 00-.003 1.965zm0-1.614a.631.631 0 11.003 1.262.631.631 0 01-.003-1.262z" fill="#EE1C1F"/><defs><linearGradient id="paint0_linear" x1="7.5" y1="6.5" x2="13.5" y2="14.5" gradientUnits="userSpaceOnUse"><stop offset=".318" stop-color="#FFCACB" stop-opacity="0"/><stop offset="1" stop-color="#FFCACB"/></linearGradient></defs></svg>