<svg width="24" height="24" fill="none" xmlns="http://www.w3.org/2000/svg"><g clip-path="url(#clip0)"><path d="M16.835 4.29h2.348V.002h-4.267c-.356-.014-4.696-.097-5.821 4.192-.016.045-.376 1.065-.376 3.448l-3.902.012v4.497l3.907-.011V24h5.968V12.15h3.95V7.64h-3.95V6.223c0-.882.372-1.933 2.143-1.933zm.82 4.338v2.534h-3.95v11.85H9.712V11.15l-3.908.011V8.64l3.918-.012-.01-.502c-.052-2.524.308-3.586.325-3.637C11.007.794 14.714.98 14.873.99h3.323v2.313h-1.361c-2.308 0-3.13 1.508-3.13 2.92v2.405h3.95z" fill="#000"/></g><defs><clipPath id="clip0"><path fill="#fff" d="M0 0h24v24H0z"/></clipPath></defs></svg>