<svg width="15" height="15" fill="none" xmlns="http://www.w3.org/2000/svg"><circle cx="10.5" cy="10.5" r="4.5" fill="url(#paint0_linear)"/><path d="M6.123 10.986h.703v.674c0 .097.108.205.205.205h.762c.097 0 .146-.108.146-.205v-.674h.791c.098 0 .147-.108.147-.205v-.703c0-.097-.05-.146-.147-.146h-.79V9.14c0-.097-.05-.147-.147-.147h-.762c-.097 0-.205.05-.205.147v.79h-.703c-.097 0-.205.05-.205.147v.703c0 .097.108.205.205.205zm.147-.703h.761c.097 0 .147-.108.147-.205v-.732h.41v.732c0 .097.108.205.205.205h.732v.352h-.732c-.097 0-.205.05-.205.146v.733h-.41v-.733c0-.097-.05-.146-.147-.146H6.27v-.352zM2.256 5.48a.176.176 0 00-.176.175v.101a.176.176 0 10.352 0v-.1a.176.176 0 00-.176-.177zm0 .662a.176.176 0 00-.176.175v1.877a.176.176 0 10.352 0V6.317a.176.176 0 00-.176-.175zm8.519-2.216a.176.176 0 00-.175-.176h-.232a.176.176 0 100 .352h.232a.176.176 0 00.175-.176zM9.39 3.75h-.924a.176.176 0 000 .352h.924a.176.176 0 100-.352zm-1.823 0H4.4a.176.176 0 100 .352h3.167a.176.176 0 100-.352zm3.209-.85a.176.176 0 00-.176-.175H9.493a.176.176 0 100 .351H10.6a.176.176 0 00.176-.176zm-4.936.176h2.674a.176.176 0 000-.351H5.84a.176.176 0 000 .351zm-1.44 0h.54a.176.176 0 100-.351H4.4a.176.176 0 100 .351z" fill="#EE1C1F"/><path d="M12.57 5.977h-.177V2.145a.17.17 0 00-.044-.124L10.734.375a.176.176 0 00-.125-.053H2.77c-.097 0-.163.079-.163.176v3.838h-.166a1.273 1.273 0 00-1.27 1.27v7.811a1.26 1.26 0 001.262 1.26h10.126a1.27 1.27 0 001.27-1.269V7.235a1.259 1.259 0 00-1.26-1.258zM10.78.927l1.033 1.036H10.78V.927zM1.523 9.346h3.665a2.465 2.465 0 00-.186.94c0 .413.1.818.278 1.14H1.523v-2.08zm11.954 4.071a.911.911 0 01-.91.91H2.442a.92.92 0 01-.918-.919v-1.63H5.5a2.495 2.495 0 004 0h3.977v1.64zm-8.124-3.125a2.147 2.147 0 114.294 0 2.147 2.147 0 01-4.294 0zm8.124 1.134H9.72c.178-.322.279-.727.279-1.14 0-.322-.064-.642-.187-.94h3.665v2.08zm0-2.432H9.635a2.497 2.497 0 00-4.27 0H1.523V5.602a.918.918 0 01.915-.915h2.54a.907.907 0 01.627.256l1.078 1.033c.234.226.547.352.872.352h2.172a.176.176 0 100-.351H7.555a.906.906 0 01-.629-.254L5.848 4.69a1.258 1.258 0 00-.87-.353h-2.02V.674h7.47v1.475c0 .097.083.165.18.165h1.432v3.663h-1.143a.176.176 0 000 .351h1.66a.92.92 0 01.919.918v1.748z" fill="#EE1C1F"/><defs><linearGradient id="paint0_linear" x1="7.5" y1="6.5" x2="13.5" y2="14.5" gradientUnits="userSpaceOnUse"><stop offset=".318" stop-color="#FFCACB" stop-opacity="0"/><stop offset="1" stop-color="#FFCACB"/></linearGradient></defs></svg>