<svg width="21" height="22" fill="none" xmlns="http://www.w3.org/2000/svg"><g clip-path="url(#clip0)" fill="#fff"><path d="M21 11.253c0-.748-.06-1.5-.185-2.235H10.71v4.236h5.787a5.102 5.102 0 01-2.142 3.342v2.749h3.453C19.835 17.429 21 14.599 21 11.253z"/><path d="M10.71 22c2.89 0 5.326-.974 7.102-2.655l-3.452-2.749c-.96.671-2.2 1.051-3.645 1.051-2.795 0-5.165-1.936-6.015-4.54H1.138v2.834c1.818 3.715 5.522 6.06 9.573 6.06z"/><path d="M4.696 13.107a6.756 6.756 0 010-4.211V6.062H1.138a11.274 11.274 0 000 9.879l3.558-2.834z"/><path d="M10.71 4.353a5.739 5.739 0 014.11 1.65l3.059-3.141A10.149 10.149 0 0010.71 0C6.66 0 2.956 2.345 1.138 6.063l3.558 2.833c.846-2.607 3.22-4.543 6.015-4.543z"/></g><defs><clipPath id="clip0"><path fill="#fff" d="M0 0h21v22H0z"/></clipPath></defs></svg>