<svg width="28" height="28" fill="none" xmlns="http://www.w3.org/2000/svg"><path d="M19.022 5.305H8.977a3.676 3.676 0 00-3.672 3.672v10.046a3.676 3.676 0 003.672 3.672h10.045a3.676 3.676 0 003.672-3.672V8.977a3.676 3.676 0 00-3.672-3.672zm2.788 13.718a2.79 2.79 0 01-2.788 2.788H8.977a2.79 2.79 0 01-2.788-2.788V8.977A2.79 2.79 0 018.977 6.19h10.045a2.79 2.79 0 012.788 2.788v10.046z" fill="#000"/><circle cx="14" cy="14" r="3.5" stroke="#000"/><path d="M18.716 9.874a1.179 1.179 0 100-2.358 1.179 1.179 0 000 2.358z" fill="#000"/></svg>