<svg width="20" height="20" fill="none" xmlns="http://www.w3.org/2000/svg"><path d="M1.667 14.1v2.5a1.667 1.667 0 001.816 1.667 16.492 16.492 0 007.192-2.558 16.25 16.25 0 005-5 16.492 16.492 0 002.558-7.225 1.668 1.668 0 00-1.658-1.817h-2.5a1.667 1.667 0 00-1.666 1.434 10.73 10.73 0 01-.584 2.341 1.667 1.667 0 00.375 1.759l1.059 1.058a13.333 13.333 0 01-5 5L7.2 12.201a1.667 1.667 0 00-1.758-.375c-.756.282-1.542.477-2.342.583a1.667 1.667 0 00-1.433 1.692z" stroke="#EE1C1F" stroke-linecap="round" stroke-linejoin="round"/></svg>