<svg width="26" height="16" fill="none" xmlns="http://www.w3.org/2000/svg"><path d="M25.047 1.531c.14-.562 0-1.031-.844-1.031h-2.765c-.704 0-1.032.375-1.22.797 0 0-1.405 3.422-3.374 5.672-.657.61-.938.843-1.313.843-.14 0-.422-.234-.422-.796V1.53C15.11.828 14.922.5 14.313.5H10c-.469 0-.703.328-.703.656 0 .657.984.797 1.078 2.672v4.078c0 .89-.14 1.078-.516 1.078-.937 0-3.187-3.468-4.546-7.406C5.03.828 4.75.5 4.046.5H1.28C.53.5.343.875.343 1.297c0 .75.937 4.36 4.36 9.187C7 13.766 10.233 15.5 13.14 15.5c1.734 0 1.968-.375 1.968-1.031 0-3.14-.14-3.469.704-3.469.421 0 1.124.234 2.765 1.828 1.875 1.875 2.203 2.672 3.235 2.672h2.765c.797 0 1.172-.375.938-1.172-.516-1.594-4.032-4.969-4.22-5.203-.421-.516-.28-.75 0-1.219 0 0 3.376-4.781 3.75-6.375z" fill="#fff"/></svg>