<svg width="24" height="24" fill="none" xmlns="http://www.w3.org/2000/svg"><path d="M23.76 6.912c0-.08-.24-1.844-1.002-2.685-.922-1.002-1.923-1.122-2.444-1.162h-.16c-3.246-.24-8.094-.28-8.174-.28-.04 0-4.928.04-8.134.36h-.12c-.56.04-1.562.16-2.444 1.162C.481 5.15.24 6.952.24 7.032c0 0-.24 2.043-.24 4.086v1.884c0 2.003.24 4.046.24 4.086 0 .08.24 1.843 1.002 2.685.841.962 1.843 1.082 2.484 1.162.12 0 .2 0 .32.04 1.844.16 7.694.24 7.934.24.04 0 4.928 0 8.174-.36h.12c.56-.04 1.562-.16 2.444-1.162.801-.842 1.042-2.645 1.042-2.725 0 0 .24-2.043.24-4.087v-1.883c0-2.003-.24-4.046-.24-4.086zm-.561 6.05c0 2.003-.24 4.006-.24 4.006-.08.441-.321 1.723-.842 2.284-.681.801-1.483.882-1.923.922h-.12c-3.206.24-8.054.24-8.094.24-.04 0-6.05-.08-7.813-.28-.12 0-.24-.04-.36-.04-.562-.04-1.363-.16-2.004-.882-.48-.52-.761-1.803-.801-2.244 0-.04-.24-2.043-.24-4.006v-1.883c0-2.004.24-4.007.24-4.007.04-.44.32-1.723.801-2.284.721-.801 1.482-.881 1.963-.922h.12c3.206-.24 8.054-.28 8.094-.28.04 0 4.888.04 8.093.28h.16c.441.04 1.243.12 1.924.922.48.561.721 1.843.801 2.284.04.08.24 2.083.24 4.006v1.884z" fill="#000"/><path d="M16.989 12.04L9.376 7.593a.364.364 0 00-.4 0 .419.419 0 00-.201.36v8.695c0 .16.08.28.2.36.08.04.12.04.2.04.08 0 .12 0 .2-.04l7.614-4.247c.12-.08.2-.2.2-.36a.42.42 0 00-.2-.36zm-7.413 3.927V8.634l6.41 3.767-6.41 3.566z" fill="#000"/></svg>